<?xml version="1.0" ?><!DOCTYPE svg  PUBLIC '-//W3C//DTD SVG 1.1//EN'  'http://www.w3.org/Graphics/SVG/1.1/DTD/svg11.dtd'><svg height="100%" style="fill-rule:evenodd;clip-rule:evenodd;stroke-linejoin:round;stroke-miterlimit:1.41421;" version="1.1" viewBox="0 0 24 24" width="100%" xml:space="preserve" xmlns="http://www.w3.org/2000/svg" xmlns:serif="http://www.serif.com/" xmlns:xlink="http://www.w3.org/1999/xlink"><rect height="24" id="Artboard10" style="fill:none;" width="24" x="0" y="0"/><path d="M22,7c0,-2.761 -2.239,-5 -5,-5c-3.054,0 -6.946,0 -10,0c-2.761,0 -5,2.239 -5,5c0,3.054 0,6.946 0,10c0,2.761 2.239,5 5,5c3.054,0 6.946,0 10,0c2.761,0 5,-2.239 5,-5c0,-3.054 0,-6.946 0,-10Z" style="fill:url(#_Radial1);"/><path d="M14.958,5.005c2.091,0.02 4.016,1.815 4.037,4.037c0.007,1.972 0.007,3.944 0,5.916c-0.02,2.083 -1.815,4.016 -4.037,4.037c-1.972,0.007 -3.944,0.007 -5.916,0c-2.092,-0.02 -4.016,-1.815 -4.037,-4.037c-0.007,-1.972 -0.007,-3.944 0,-5.916c0.019,-2.093 1.81,-4.016 4.037,-4.037c1.972,-0.007 3.944,-0.007 5.916,0Zm-5.889,0.945c-1.623,0.005 -3.103,1.412 -3.119,3.098c-0.006,1.968 -0.006,3.936 0,5.904c0.015,1.605 1.388,3.082 3.098,3.098c1.968,0.006 3.936,0.006 5.904,0c1.609,-0.015 3.082,-1.388 3.098,-3.098c0.006,-1.968 0.006,-3.936 0,-5.904c-0.015,-1.616 -1.415,-3.082 -3.098,-3.098c-1.961,-0.006 -3.922,0 -5.883,0Z" style="fill:#fff;fill-rule:nonzero;"/><path d="M12.024,8.5c1.618,0.015 3.126,1.263 3.422,2.862c0.211,1.14 -0.187,2.376 -1.027,3.178c-0.935,0.89 -2.382,1.208 -3.622,0.754c-1.386,-0.507 -2.361,-1.968 -2.296,-3.448c0.079,-1.768 1.641,-3.34 3.499,-3.346c0.008,0 0.016,0 0.024,0Zm-0.04,0.947c-1.155,0.011 -2.244,0.887 -2.484,2.025c-0.243,1.151 0.419,2.428 1.506,2.887c1.187,0.502 2.72,-0.061 3.293,-1.233c0.593,-1.211 0.034,-2.856 -1.218,-3.441c-0.341,-0.159 -0.72,-0.239 -1.097,-0.238Z" style="fill:#fff;fill-rule:nonzero;"/><path d="M16.5,8.227c0,-0.193 -0.077,-0.378 -0.213,-0.514c-0.136,-0.136 -0.321,-0.213 -0.514,-0.213c-0.015,0 -0.031,0 -0.046,0c-0.193,0 -0.378,0.077 -0.514,0.213c-0.136,0.136 -0.213,0.321 -0.213,0.514c0,0.008 0,0.015 0,0.023c0,0.199 0.079,0.39 0.22,0.53c0.14,0.141 0.331,0.22 0.53,0.22c0,0 0,0 0,0c0.414,0 0.75,-0.336 0.75,-0.75c0,-0.008 0,-0.015 0,-0.023Z" style="fill:#fff;"/><defs><radialGradient cx="0" cy="0" gradientTransform="matrix(27.933,0,0,27.933,2,21.5)" gradientUnits="userSpaceOnUse" id="_Radial1" r="1"><stop offset="0" style="stop-color:#ff8100;stop-opacity:1"/><stop offset="0.19" style="stop-color:#ff7209;stop-opacity:1"/><stop offset="0.32" style="stop-color:#f55e16;stop-opacity:1"/><stop offset="0.48" style="stop-color:#d92938;stop-opacity:1"/><stop offset="1" style="stop-color:#9100ff;stop-opacity:1"/></radialGradient></defs></svg>