<?xml version="1.0" ?><!DOCTYPE svg  PUBLIC '-//W3C//DTD SVG 1.1//EN'  'http://www.w3.org/Graphics/SVG/1.1/DTD/svg11.dtd'><svg enable-background="new 0 0 550 550" id="Layer_1" version="1.1" viewBox="0 0 550 550" xml:space="preserve" xmlns="http://www.w3.org/2000/svg" xmlns:xlink="http://www.w3.org/1999/xlink"><g><g><circle cx="275" cy="275" fill="#2CBDE2" r="256"/><path d="M161.9,181.2c0,0,40.6,45.9,107.8,53.4c0,0-3.2-38.4,30.9-59.8c0,0,35.2-23.5,61.9,10.7     c0,0,25.6-5.3,35.2-11.7c0,0-7.5,14.5-20.3,27l28.8-5.7l-26.7,28.8c0,0,10.7,97.1-95.5,148.3c0,0-82.7,29.9-140.3-9.6     c0,0,70.4-10.7,77.9-26.7c0,0-37.4-4.3-47-36.3l20.3-1.1c0,0-35.2-3.2-39.5-53.4l23.5,3.2C179,248.4,141.6,237.8,161.9,181.2z" fill="#FFFFFF"/></g></g></svg>