<svg
              id="Icons"
              enableBackground="new 0 0 64 64"
              height="256"
              viewBox="0 0 64 64"
              width="256"
              xmlns="http://www.w3.org/2000/svg"
            >
              <g>
                <g>
                  <path d="m4 14h30v6h-30z" fill="#64c8f0" />
                </g>
                <g>
                  <path
                    d="m52.667 28-10.667 8v-8h-5c-1.654 0-3-1.346-3-3v-5h-30v38h52v-30z"
                    fill="#f0f0f0"
                  />
                </g>
                <g>
                  <path d="m4 14h3.967v6h-3.967z" fill="#46aad2" />
                </g>
                <g>
                  <path d="m8 16h2v2h-2z" fill="#f0f0f0" />
                </g>
                <g>
                  <path d="m12 16h2v2h-2z" fill="#f0f0f0" />
                </g>
                <g>
                  <path d="m16 16h2v2h-2z" fill="#f0f0f0" />
                </g>
                <g>
                  <path d="m4 20h4v38h-4z" fill="#d2d2d2" />
                </g>
                <g>
                  <path
                    d="m59 6h-22c-.552 0-1 .448-1 1v18c0 .552.448 1 1 1h7v6l8-6h7c.552 0 1-.448 1-1v-18c0-.552-.448-1-1-1z"
                    fill="#fab400"
                  />
                </g>
                <g>
                  <path
                    d="m38 25v-18c0-.552.448-1 1-1h-2c-.552 0-1 .448-1 1v18c0 .552.448 1 1 1h2c-.552 0-1-.448-1-1z"
                    fill="#dc9600"
                  />
                </g>
                <g>
                  <path d="m14 42h34v2h-34z" fill="#d2d2d2" />
                </g>
                <g>
                  <path d="m14 38h34v2h-34z" fill="#d2d2d2" />
                </g>
                <g>
                  <path d="m14 46h34v2h-34z" fill="#d2d2d2" />
                </g>
                <g>
                  <path d="m14 50h28v2h-28z" fill="#d2d2d2" />
                </g>
                <g>
                  <circle cx="48" cy="16" fill="#f0f0f0" r="8" />
                </g>
                <g>
                  <path d="m47 10h2v8h-2z" fill="#fa6450" />
                </g>
                <g>
                  <circle cx="48" cy="20" fill="#fa6450" r="1" />
                </g>
                <g>
                  <circle cx="20" cy="30" fill="#f0c8a0" r="6" />
                </g>
                <g>
                  <path
                    d="m16 30c0-2.972 2.163-5.433 5-5.91-.326-.055-.659-.09-1-.09-3.314 0-6 2.686-6 6s2.686 6 6 6c.341 0 .674-.035 1-.09-2.837-.477-5-2.938-5-5.91z"
                    fill="#d2aa82"
                  />
                </g>
                <g>
                  <path
                    d="m22.475 33.525c-1.322-1.322-3.627-1.322-4.949 0l-.707-.707c.85-.85 1.979-1.318 3.182-1.318s2.332.468 3.182 1.318z"
                    fill="#505050"
                  />
                </g>
                <g>
                  <circle cx="17" cy="29" fill="#505050" r="1" />
                </g>
                <g>
                  <circle cx="23" cy="29" fill="#505050" r="1" />
                </g>
              </g>
            </svg>