<?xml version="1.0" encoding="utf-8"?>
<svg version="1.1" id="Layer_1" focusable="false" xmlns="http://www.w3.org/2000/svg" xmlns:xlink="http://www.w3.org/1999/xlink"
	 x="0px" y="0px" viewBox="0 0 24 24" style="enable-background:new 0 0 24 24;" xml:space="preserve">
<defs>
	<symbol id="icon-cart" viewBox="0 0 32 32">
	<path d="M9.333 24c-1.467 0-2.653 1.2-2.653 2.667s1.187 2.667 2.653 2.667 2.667-1.2 2.667-2.667-1.2-2.667-2.667-2.667zM1.333 2.667v2.667h2.667l4.8 10.12-1.8 3.267c-0.213 0.373-0.333 0.813-0.333 1.28 0 1.467 1.2 2.667 2.667 2.667h16v-2.667h-15.44c-0.187 0-0.333-0.147-0.333-0.333l0.040-0.16 1.2-2.173h9.933c1 0 1.88-0.547 2.333-1.373l4.773-8.653c0.101-0.184 0.161-0.403 0.161-0.636 0-0.737-0.597-1.336-1.334-1.337h-19.72l-1.253-2.667h-4.36zM22.667 24c-1.467 0-2.653 1.2-2.653 2.667s1.187 2.667 2.653 2.667 2.667-1.2 2.667-2.667-1.2-2.667-2.667-2.667z"></path>
	</symbol>
</defs>
</svg>
