<svg xmlns="http://www.w3.org/2000/svg" x="0px" y="0px"
width="24" height="24"
viewBox="0 0 172 172"
style=" fill:#fa314a;"><g fill="none" fill-rule="nonzero" stroke="none" stroke-width="1" stroke-linecap="butt" stroke-linejoin="miter" stroke-miterlimit="10" stroke-dasharray="" stroke-dashoffset="0" font-family="none" font-weight="none" font-size="none" text-anchor="none" style="mix-blend-mode: normal"><path d="M0,172v-172h172v172z" fill="none"></path><path d="M86,172c-47.49649,0 -86,-38.50351 -86,-86v0c0,-47.49649 38.50351,-86 86,-86v0c47.49649,0 86,38.50351 86,86v0c0,47.49649 -38.50351,86 -86,86z" fill="#f1c40f"></path><g fill="#000000"><path d="M50.23428,34.81384l-17.45187,0.07996l0.04998,10.23523l10.59506,-0.04998l4.25802,10.21524h0.4398h6.31706v0.01h25.60807l-9.8654,15.65271l-6.24709,9.92538h0.01l-9.06578,14.46326c-2.04705,3.27527 -2.15292,7.41247 -0.27987,10.78498c1.87305,3.37251 5.42699,5.46745 9.28567,5.46745h60.99159v-10.23523h-60.99159l-0.32985,-0.59972l6.02719,-9.63551h37.49253c3.72051,0 7.14443,-2.02298 8.94583,-5.26755l18.44141,-33.19454c0.88535,-1.58646 0.8612,-3.51164 -0.05997,-5.07763c-0.92117,-1.56087 -2.6063,-2.51883 -4.41794,-2.51883h-75.47485zM22.53718,65.52954v10.23523h32.54484l0.2099,-0.30986l6.23709,-9.92538zM22.53718,86v10.23523h19.65085l6.49697,-10.23523zM63.46811,116.71569c-5.65276,0 -10.23523,4.58247 -10.23523,10.23523c0,5.65276 4.58247,10.23523 10.23523,10.23523c5.65276,0 10.23523,-4.58247 10.23523,-10.23523c0,-5.65276 -4.58247,-10.23523 -10.23523,-10.23523zM114.64428,116.71569c-5.65276,0 -10.23523,4.58247 -10.23523,10.23523c0,5.65276 4.58247,10.23523 10.23523,10.23523c5.65276,0 10.23523,-4.58247 10.23523,-10.23523c0,-5.65276 -4.58247,-10.23523 -10.23523,-10.23523z"></path></g></g></svg>