<?xml version="1.0" encoding="iso-8859-1"?>
<!-- Generator: Adobe Illustrator 19.0.0, SVG Export Plug-In . SVG Version: 6.00 Build 0)  -->
<svg version="1.1" id="Layer_1" xmlns="http://www.w3.org/2000/svg" xmlns:xlink="http://www.w3.org/1999/xlink" x="0px" y="0px"
	 viewBox="0 0 512 512" style="enable-background:new 0 0 512 512;" xml:space="preserve">
<path style="fill:#6DC82A;" d="M256,512C114.839,512,0,397.161,0,256S114.839,0,256,0s256,114.839,256,256S397.161,512,256,512z"/>
<path style="fill:#61B325;" d="M512,256C512,114.839,397.161,0,256,0v512C397.161,512,512,397.161,512,256z"/>
<path style="fill:#FFFFFF;" d="M389.594,272.699H122.406c-9.225,0-16.699-7.475-16.699-16.699c0-9.225,7.475-16.699,16.699-16.699
	h267.189c9.225,0,16.699,7.475,16.699,16.699C406.294,265.225,398.819,272.699,389.594,272.699z"/>
<path style="fill:#FFEB99;" d="M389.594,239.301H256v33.399h133.594c9.225,0,16.699-7.475,16.699-16.699
	C406.294,246.775,398.819,239.301,389.594,239.301z"/>
<g>
</g>
<g>
</g>
<g>
</g>
<g>
</g>
<g>
</g>
<g>
</g>
<g>
</g>
<g>
</g>
<g>
</g>
<g>
</g>
<g>
</g>
<g>
</g>
<g>
</g>
<g>
</g>
<g>
</g>
</svg>
