<svg width="21" height="20" viewBox="0 0 21 20" fill="none" xmlns="http://www.w3.org/2000/svg">
<path d="M16.5 18.5C16.5 18.7967 16.412 19.0867 16.2472 19.3334C16.0824 19.58 15.8481 19.7723 15.574 19.8858C15.2999 19.9993 14.9983 20.0291 14.7074 19.9712C14.4164 19.9133 14.1491 19.7704 13.9393 19.5607C13.7296 19.3509 13.5867 19.0836 13.5288 18.7926C13.4709 18.5017 13.5007 18.2001 13.6142 17.926C13.7277 17.6519 13.92 17.4176 14.1666 17.2528C14.4133 17.088 14.7033 17 15 17C15.3978 17 15.7794 17.158 16.0607 17.4393C16.342 17.7206 16.5 18.1022 16.5 18.5ZM9 17C8.70333 17 8.41332 17.088 8.16665 17.2528C7.91997 17.4176 7.72771 17.6519 7.61418 17.926C7.50065 18.2001 7.47094 18.5017 7.52882 18.7926C7.5867 19.0836 7.72956 19.3509 7.93934 19.5607C8.14912 19.7704 8.41639 19.9133 8.70736 19.9712C8.99834 20.0291 9.29994 19.9993 9.57403 19.8858C9.84812 19.7723 10.0824 19.58 10.2472 19.3334C10.412 19.0867 10.5 18.7967 10.5 18.5C10.5 18.1022 10.342 17.7206 10.0607 17.4393C9.77936 17.158 9.39783 17 9 17Z" fill="#D10057"/>
<path d="M16.2 12C16.4003 12.0002 16.596 11.9402 16.7618 11.8279C16.9276 11.7156 17.0559 11.5561 17.13 11.37L19.93 4.37C19.9904 4.21858 20.0129 4.05468 19.9954 3.89259C19.978 3.7305 19.9212 3.57512 19.83 3.44C19.7383 3.30429 19.6146 3.19319 19.4699 3.11647C19.3252 3.03975 19.1638 2.99975 19 3H5.88L5.18 1.26C5.03179 0.88787 4.77526 0.568815 4.44363 0.344163C4.112 0.119511 3.72056 -0.000386826 3.32 9.37591e-07H1C0.734784 9.37591e-07 0.48043 0.105358 0.292893 0.292894C0.105357 0.48043 0 0.734784 0 1C0 1.26522 0.105357 1.51957 0.292893 1.70711C0.48043 1.89464 0.734784 2 1 2H3.32L6.9 11L5.83 13.11C5.67852 13.4148 5.60735 13.7533 5.62324 14.0933C5.63913 14.4334 5.74154 14.7637 5.92078 15.0531C6.10002 15.3425 6.35016 15.5814 6.64752 15.7471C6.94487 15.9128 7.2796 15.9998 7.62 16H17C17.2652 16 17.5196 15.8946 17.7071 15.7071C17.8946 15.5196 18 15.2652 18 15C18 14.7348 17.8946 14.4804 17.7071 14.2929C17.5196 14.1054 17.2652 14 17 14H7.62L8.62 12H16.2Z" fill="#D10057"/>
</svg>
