<?xml version="1.0" encoding="UTF-8"?>
<svg xmlns="http://www.w3.org/2000/svg" xmlns:xlink="http://www.w3.org/1999/xlink" width="150px" height="150px" viewBox="0 0 150 150" version="1.1">
<g id="surface1">
<path  d="M 43.75 112.5 C 36.875 112.5 31.3125 118.125 31.3125 125 C 31.3125 131.875 36.875 137.5 43.75 137.5 C 50.625 137.5 56.25 131.875 56.25 125 C 56.25 118.125 50.625 112.5 43.75 112.5 Z M 6.25 12.5 L 6.25 25 L 18.75 25 L 41.25 72.4375 L 32.8125 87.75 C 31.8125 89.5 31.25 91.5625 31.25 93.75 C 31.25 100.625 36.875 106.25 43.75 106.25 L 118.75 106.25 L 118.75 93.75 L 46.375 93.75 C 45.5 93.75 44.8125 93.0625 44.8125 92.1875 L 45 91.4375 L 50.625 81.25 L 97.1875 81.25 C 101.875 81.25 106 78.6875 108.125 74.8125 L 130.5 34.25 C 131.550781 32.308594 131.5 29.960938 130.375 28.066406 C 129.246094 26.167969 127.207031 25.003906 125 25 L 32.5625 25 L 26.6875 12.5 Z M 106.25 112.5 C 99.375 112.5 93.8125 118.125 93.8125 125 C 93.8125 131.875 99.375 137.5 106.25 137.5 C 113.125 137.5 118.75 131.875 118.75 125 C 118.75 118.125 113.125 112.5 106.25 112.5 Z M 106.25 112.5 "/>
</g>
</svg>
