<?xml version="1.0" standalone="no"?>
<!DOCTYPE svg PUBLIC "-//W3C//DTD SVG 20010904//EN"
 "http://www.w3.org/TR/2001/REC-SVG-20010904/DTD/svg10.dtd">
<svg version="1.0" xmlns="http://www.w3.org/2000/svg"
 width="190.000000pt" height="86.000000pt" viewBox="0 0 190.000000 86.000000"
 preserveAspectRatio="xMidYMid meet">

<g transform="translate(0.000000,86.000000) scale(0.100000,-0.100000)"
fill="#000000" stroke="none">
<path d="M0 435 l0 -365 385 0 385 0 0 45 c0 38 -3 45 -20 45 -25 0 -25 7 0
45 25 37 28 120 5 129 -8 3 -15 17 -15 31 0 16 6 25 15 25 10 0 15 10 15 30 0
17 -4 30 -9 30 -5 0 -11 9 -14 20 -4 16 -14 20 -47 20 -33 0 -43 -4 -47 -20
-4 -15 -14 -20 -39 -20 l-33 0 25 68 c14 37 34 87 43 112 15 41 19 45 51 45
32 0 36 -4 52 -45 l17 -45 0 108 1 107 -385 0 -385 0 0 -365z m539 236 c8 -5
11 -16 7 -29 -5 -15 -15 -20 -38 -18 -45 2 -45 -18 2 -37 97 -38 52 -161 -53
-142 -54 11 -61 18 -44 50 9 18 17 24 21 16 4 -6 20 -11 37 -11 42 0 37 26 -8
45 -44 18 -53 30 -53 68 0 39 32 67 78 67 20 0 43 -4 51 -9z m-129 -291 c29
-15 41 -45 31 -72 -7 -18 -4 -29 10 -47 25 -31 24 -47 -6 -76 -21 -22 -33 -25
-90 -25 l-65 0 0 115 0 115 51 0 c28 0 59 -5 69 -10z m258 -98 c23 -60 42
-112 42 -115 0 -4 -14 -7 -31 -7 -22 0 -32 5 -36 20 -8 29 -88 29 -96 0 -4
-15 -14 -20 -36 -20 -17 0 -31 2 -31 5 0 2 19 54 41 115 41 109 42 110 74 110
31 0 33 -2 73 -108z"/>
<path d="M350 320 c0 -15 5 -20 18 -18 9 2 17 10 17 18 0 8 -8 16 -17 18 -13
2 -18 -3 -18 -18z"/>
<path d="M350 230 c0 -15 7 -20 25 -20 18 0 25 5 25 20 0 15 -7 20 -25 20 -18
0 -25 -5 -25 -20z"/>
<path d="M581 280 c-9 -28 -8 -30 14 -30 22 0 23 2 14 30 -6 17 -12 30 -14 30
-2 0 -8 -13 -14 -30z"/>
<path d="M1030 560 l0 -170 28 0 c26 0 30 -6 67 -105 22 -58 42 -105 45 -105
3 0 18 33 33 73 19 51 27 90 27 135 0 59 -1 62 -24 62 -17 0 -34 13 -55 42
l-31 42 0 -42 c0 -41 -1 -42 -35 -42 l-35 0 0 115 0 115 35 0 c34 0 35 -1 35
-37 l1 -38 30 38 c20 24 39 37 55 37 19 0 24 5 24 25 l0 25 -100 0 -100 0 0
-170z"/>
<path d="M1201 604 c-27 -34 -26 -45 4 -74 l25 -23 0 61 c0 34 -2 62 -4 62 -3
0 -14 -12 -25 -26z"/>
<path d="M690 581 c0 -5 -3 -16 -6 -25 -4 -12 0 -16 16 -16 16 0 20 4 16 16
-3 9 -6 20 -6 25 0 5 -4 9 -10 9 -5 0 -10 -4 -10 -9z"/>
<path d="M1037 270 c-4 -15 0 -20 13 -20 13 0 17 5 13 20 -3 11 -9 20 -13 20
-4 0 -10 -9 -13 -20z"/>
<path d="M1030 120 l0 -80 100 0 100 0 0 60 0 60 -64 0 c-56 0 -66 3 -71 20
-4 14 -15 20 -36 20 l-29 0 0 -80z"/>
</g>
</svg>
