<svg xmlns="http://www.w3.org/2000/svg" xmlns:xlink="http://www.w3.org/1999/xlink" version="1.1" width="256" height="256" viewBox="0 0 256 256" xml:space="preserve">
<desc>Created with Fabric.js 1.7.22</desc>
<defs>
</defs>
<g transform="translate(128 128) scale(0.72 0.72)" style="">
	<g style="stroke: none; stroke-width: 0; stroke-dasharray: none; stroke-linecap: butt; stroke-linejoin: miter; stroke-miterlimit: 10; fill:#ffffff ; fill-rule: nonzero; opacity: 1;" transform="translate(-175.05 -175.05000000000004) scale(3.89 3.89)" >
	<path fill="#ffffff" d="M 58.799 31.67 L 16.466 74.002 c -1.059 1.059 -2.776 1.059 -3.835 0 L 0.794 62.166 c -1.059 -1.059 -1.059 -2.776 0 -3.835 l 42.333 -42.333 c 1.059 -1.059 2.776 -1.059 3.835 0 l 11.837 11.837 C 59.858 28.893 59.858 30.61 58.799 31.67 z" style="stroke: none; stroke-width: 1; stroke-dasharray: none; stroke-linecap: butt; stroke-linejoin: miter; stroke-miterlimit: 10; fill:#ffffff; fill-rule: nonzero; opacity: 1;" transform=" matrix(1 0 0 1 0 0) " stroke-linecap="round" />
	<path fill="#FFFFFF" d="M 31.201 31.67 l 42.333 42.333 c 1.059 1.059 2.776 1.059 3.835 0 l 11.837 -11.837 c 1.059 -1.059 1.059 -2.776 0 -3.835 L 46.873 15.998 c -1.059 -1.059 -2.776 -1.059 -3.835 0 L 31.201 27.834 C 30.142 28.893 30.142 30.61 31.201 31.67 z" style="stroke: none; stroke-width: 1; stroke-dasharray: none; stroke-linecap: butt; stroke-linejoin: miter; stroke-miterlimit: 10; fill:#ffffff; fill-rule: nonzero; opacity: 1;" transform=" matrix(1 0 0 1 0 0) " stroke-linecap="round" />
</g>
</g>
</svg>